<mxfile host="Electron" modified="2024-05-28T03:32:51.286Z" agent="Mozilla/5.0 (X11; Linux x86_64) AppleWebKit/537.36 (KHTML, like Gecko) draw.io/24.4.8 Chrome/124.0.6367.207 Electron/30.0.6 Safari/537.36" etag="oPekQKYeLhFi-Ca2k5PC" version="24.4.8" type="device">
  <diagram name="第 1 页" id="DRNzsVT0QGQxIV6N-UvJ">
    <mxGraphModel dx="672" dy="453" grid="1" gridSize="10" guides="1" tooltips="1" connect="1" arrows="1" fold="1" page="1" pageScale="1" pageWidth="827" pageHeight="1169" math="0" shadow="0">
      <root>
        <mxCell id="0" />
        <mxCell id="1" parent="0" />
        <mxCell id="QhnTB9sC_WbG7Cv3I6Ns-3" value="" style="edgeStyle=orthogonalEdgeStyle;rounded=0;orthogonalLoop=1;jettySize=auto;html=1;fontFamily=JetBrainsMono Nerd Font;" edge="1" parent="1" source="QhnTB9sC_WbG7Cv3I6Ns-1" target="QhnTB9sC_WbG7Cv3I6Ns-2">
          <mxGeometry relative="1" as="geometry" />
        </mxCell>
        <mxCell id="QhnTB9sC_WbG7Cv3I6Ns-1" value="&lt;font style=&quot;font-size: 14px;&quot;&gt;Initate&lt;/font&gt;" style="rounded=1;whiteSpace=wrap;html=1;fontFamily=JetBrainsMono Nerd Font;" vertex="1" parent="1">
          <mxGeometry x="320" y="20" width="120" height="60" as="geometry" />
        </mxCell>
        <mxCell id="QhnTB9sC_WbG7Cv3I6Ns-6" value="" style="edgeStyle=orthogonalEdgeStyle;rounded=0;orthogonalLoop=1;jettySize=auto;html=1;fontFamily=JetBrainsMono Nerd Font;" edge="1" parent="1" source="QhnTB9sC_WbG7Cv3I6Ns-2" target="QhnTB9sC_WbG7Cv3I6Ns-4">
          <mxGeometry relative="1" as="geometry" />
        </mxCell>
        <mxCell id="QhnTB9sC_WbG7Cv3I6Ns-2" value="Observe Market" style="whiteSpace=wrap;html=1;rounded=1;fontFamily=JetBrainsMono Nerd Font;" vertex="1" parent="1">
          <mxGeometry x="320" y="110" width="120" height="60" as="geometry" />
        </mxCell>
        <mxCell id="QhnTB9sC_WbG7Cv3I6Ns-8" style="edgeStyle=orthogonalEdgeStyle;rounded=0;orthogonalLoop=1;jettySize=auto;html=1;exitX=0.5;exitY=1;exitDx=0;exitDy=0;entryX=0.5;entryY=0;entryDx=0;entryDy=0;fontFamily=JetBrainsMono Nerd Font;" edge="1" parent="1" source="QhnTB9sC_WbG7Cv3I6Ns-4" target="QhnTB9sC_WbG7Cv3I6Ns-7">
          <mxGeometry relative="1" as="geometry">
            <Array as="points">
              <mxPoint x="380" y="370" />
              <mxPoint x="380" y="370" />
            </Array>
          </mxGeometry>
        </mxCell>
        <mxCell id="QhnTB9sC_WbG7Cv3I6Ns-9" value="Yes" style="edgeLabel;html=1;align=center;verticalAlign=middle;resizable=0;points=[];fontFamily=JetBrainsMono Nerd Font;" vertex="1" connectable="0" parent="QhnTB9sC_WbG7Cv3I6Ns-8">
          <mxGeometry x="0.0757" y="-2" relative="1" as="geometry">
            <mxPoint x="2" y="-13" as="offset" />
          </mxGeometry>
        </mxCell>
        <mxCell id="QhnTB9sC_WbG7Cv3I6Ns-11" style="edgeStyle=orthogonalEdgeStyle;rounded=0;orthogonalLoop=1;jettySize=auto;html=1;exitX=1;exitY=0.5;exitDx=0;exitDy=0;entryX=1;entryY=0.5;entryDx=0;entryDy=0;fontFamily=JetBrainsMono Nerd Font;" edge="1" parent="1" source="QhnTB9sC_WbG7Cv3I6Ns-4" target="QhnTB9sC_WbG7Cv3I6Ns-2">
          <mxGeometry relative="1" as="geometry" />
        </mxCell>
        <mxCell id="QhnTB9sC_WbG7Cv3I6Ns-12" value="NO" style="edgeLabel;html=1;align=center;verticalAlign=middle;resizable=0;points=[];fontFamily=JetBrainsMono Nerd Font;" vertex="1" connectable="0" parent="QhnTB9sC_WbG7Cv3I6Ns-11">
          <mxGeometry x="0.1205" relative="1" as="geometry">
            <mxPoint as="offset" />
          </mxGeometry>
        </mxCell>
        <mxCell id="QhnTB9sC_WbG7Cv3I6Ns-4" value="Company Dcreasing?" style="rhombus;whiteSpace=wrap;html=1;fontFamily=JetBrainsMono Nerd Font;" vertex="1" parent="1">
          <mxGeometry x="290" y="220" width="180" height="80" as="geometry" />
        </mxCell>
        <mxCell id="QhnTB9sC_WbG7Cv3I6Ns-18" value="" style="edgeStyle=orthogonalEdgeStyle;rounded=0;orthogonalLoop=1;jettySize=auto;html=1;entryX=0.5;entryY=0;entryDx=0;entryDy=0;fontFamily=JetBrainsMono Nerd Font;" edge="1" parent="1" source="QhnTB9sC_WbG7Cv3I6Ns-7" target="QhnTB9sC_WbG7Cv3I6Ns-22">
          <mxGeometry relative="1" as="geometry" />
        </mxCell>
        <mxCell id="QhnTB9sC_WbG7Cv3I6Ns-7" value="Add to Interest" style="rounded=1;whiteSpace=wrap;html=1;fontFamily=JetBrainsMono Nerd Font;" vertex="1" parent="1">
          <mxGeometry x="320" y="360" width="120" height="60" as="geometry" />
        </mxCell>
        <mxCell id="QhnTB9sC_WbG7Cv3I6Ns-20" value="" style="edgeStyle=orthogonalEdgeStyle;rounded=0;orthogonalLoop=1;jettySize=auto;html=1;entryX=0.5;entryY=0;entryDx=0;entryDy=0;fontFamily=JetBrainsMono Nerd Font;" edge="1" parent="1" source="QhnTB9sC_WbG7Cv3I6Ns-16" target="QhnTB9sC_WbG7Cv3I6Ns-24">
          <mxGeometry relative="1" as="geometry">
            <mxPoint x="380" y="780" as="targetPoint" />
          </mxGeometry>
        </mxCell>
        <mxCell id="QhnTB9sC_WbG7Cv3I6Ns-25" value="&lt;font&gt;Uncertain&lt;/font&gt;" style="edgeLabel;html=1;align=center;verticalAlign=middle;resizable=0;points=[];fontFamily=JetBrainsMono Nerd Font;" vertex="1" connectable="0" parent="QhnTB9sC_WbG7Cv3I6Ns-20">
          <mxGeometry x="-0.0788" y="-1" relative="1" as="geometry">
            <mxPoint as="offset" />
          </mxGeometry>
        </mxCell>
        <mxCell id="QhnTB9sC_WbG7Cv3I6Ns-26" style="edgeStyle=orthogonalEdgeStyle;rounded=0;orthogonalLoop=1;jettySize=auto;html=1;exitX=0;exitY=0.5;exitDx=0;exitDy=0;entryX=0;entryY=0.5;entryDx=0;entryDy=0;fontFamily=JetBrainsMono Nerd Font;" edge="1" parent="1" source="QhnTB9sC_WbG7Cv3I6Ns-16" target="QhnTB9sC_WbG7Cv3I6Ns-22">
          <mxGeometry relative="1" as="geometry" />
        </mxCell>
        <mxCell id="QhnTB9sC_WbG7Cv3I6Ns-27" value="Else" style="edgeLabel;html=1;align=center;verticalAlign=middle;resizable=0;points=[];fontFamily=JetBrainsMono Nerd Font;" vertex="1" connectable="0" parent="QhnTB9sC_WbG7Cv3I6Ns-26">
          <mxGeometry x="-0.1319" y="2" relative="1" as="geometry">
            <mxPoint as="offset" />
          </mxGeometry>
        </mxCell>
        <mxCell id="QhnTB9sC_WbG7Cv3I6Ns-16" value="Current Trend ?" style="rhombus;whiteSpace=wrap;html=1;fontFamily=JetBrainsMono Nerd Font;" vertex="1" parent="1">
          <mxGeometry x="290" y="545" width="180" height="80" as="geometry" />
        </mxCell>
        <mxCell id="QhnTB9sC_WbG7Cv3I6Ns-42" style="edgeStyle=orthogonalEdgeStyle;rounded=0;orthogonalLoop=1;jettySize=auto;html=1;exitX=0.5;exitY=1;exitDx=0;exitDy=0;entryX=0;entryY=0.5;entryDx=0;entryDy=0;" edge="1" parent="1" source="QhnTB9sC_WbG7Cv3I6Ns-21" target="QhnTB9sC_WbG7Cv3I6Ns-22">
          <mxGeometry relative="1" as="geometry">
            <Array as="points">
              <mxPoint x="250" y="1010" />
              <mxPoint x="180" y="1010" />
              <mxPoint x="180" y="480" />
            </Array>
          </mxGeometry>
        </mxCell>
        <mxCell id="QhnTB9sC_WbG7Cv3I6Ns-21" value="&lt;font&gt;Buy Shares&lt;/font&gt;" style="rounded=1;whiteSpace=wrap;html=1;fontFamily=JetBrainsMono Nerd Font;" vertex="1" parent="1">
          <mxGeometry x="190" y="900" width="120" height="60" as="geometry" />
        </mxCell>
        <mxCell id="QhnTB9sC_WbG7Cv3I6Ns-23" value="" style="edgeStyle=orthogonalEdgeStyle;rounded=0;orthogonalLoop=1;jettySize=auto;html=1;entryX=0.5;entryY=0;entryDx=0;entryDy=0;fontFamily=JetBrainsMono Nerd Font;" edge="1" parent="1" source="QhnTB9sC_WbG7Cv3I6Ns-22" target="QhnTB9sC_WbG7Cv3I6Ns-16">
          <mxGeometry relative="1" as="geometry">
            <mxPoint x="380" y="550" as="targetPoint" />
          </mxGeometry>
        </mxCell>
        <mxCell id="QhnTB9sC_WbG7Cv3I6Ns-22" value="Observe Interest" style="rounded=1;whiteSpace=wrap;html=1;fontFamily=JetBrainsMono Nerd Font;" vertex="1" parent="1">
          <mxGeometry x="320" y="450" width="120" height="60" as="geometry" />
        </mxCell>
        <mxCell id="QhnTB9sC_WbG7Cv3I6Ns-29" style="edgeStyle=orthogonalEdgeStyle;rounded=0;orthogonalLoop=1;jettySize=auto;html=1;exitX=0;exitY=0.5;exitDx=0;exitDy=0;entryX=0.5;entryY=0;entryDx=0;entryDy=0;fontFamily=JetBrainsMono Nerd Font;" edge="1" parent="1" source="QhnTB9sC_WbG7Cv3I6Ns-24" target="QhnTB9sC_WbG7Cv3I6Ns-21">
          <mxGeometry relative="1" as="geometry" />
        </mxCell>
        <mxCell id="QhnTB9sC_WbG7Cv3I6Ns-31" value="&lt;font&gt;Decrease&lt;/font&gt;" style="edgeLabel;html=1;align=center;verticalAlign=middle;resizable=0;points=[];fontFamily=JetBrainsMono Nerd Font;" vertex="1" connectable="0" parent="QhnTB9sC_WbG7Cv3I6Ns-29">
          <mxGeometry x="0.0877" y="-1" relative="1" as="geometry">
            <mxPoint as="offset" />
          </mxGeometry>
        </mxCell>
        <mxCell id="QhnTB9sC_WbG7Cv3I6Ns-30" style="edgeStyle=orthogonalEdgeStyle;rounded=0;orthogonalLoop=1;jettySize=auto;html=1;exitX=1;exitY=0.5;exitDx=0;exitDy=0;fontFamily=JetBrainsMono Nerd Font;entryX=0.5;entryY=0;entryDx=0;entryDy=0;" edge="1" parent="1" source="QhnTB9sC_WbG7Cv3I6Ns-24" target="QhnTB9sC_WbG7Cv3I6Ns-33">
          <mxGeometry relative="1" as="geometry" />
        </mxCell>
        <mxCell id="QhnTB9sC_WbG7Cv3I6Ns-32" value="&lt;font&gt;Increase&lt;/font&gt;" style="edgeLabel;html=1;align=center;verticalAlign=middle;resizable=0;points=[];fontFamily=JetBrainsMono Nerd Font;" vertex="1" connectable="0" parent="QhnTB9sC_WbG7Cv3I6Ns-30">
          <mxGeometry x="0.1305" y="1" relative="1" as="geometry">
            <mxPoint as="offset" />
          </mxGeometry>
        </mxCell>
        <mxCell id="QhnTB9sC_WbG7Cv3I6Ns-24" value="&lt;font&gt;Previous Trend ?&lt;/font&gt;" style="rhombus;whiteSpace=wrap;html=1;fontFamily=JetBrainsMono Nerd Font;" vertex="1" parent="1">
          <mxGeometry x="290" y="680" width="180" height="80" as="geometry" />
        </mxCell>
        <mxCell id="QhnTB9sC_WbG7Cv3I6Ns-40" value="" style="edgeStyle=orthogonalEdgeStyle;rounded=0;orthogonalLoop=1;jettySize=auto;html=1;" edge="1" parent="1" source="QhnTB9sC_WbG7Cv3I6Ns-28" target="QhnTB9sC_WbG7Cv3I6Ns-39">
          <mxGeometry relative="1" as="geometry" />
        </mxCell>
        <mxCell id="QhnTB9sC_WbG7Cv3I6Ns-28" value="&lt;font&gt;Sell All Shares&lt;/font&gt;" style="rounded=1;whiteSpace=wrap;html=1;fontFamily=JetBrainsMono Nerd Font;" vertex="1" parent="1">
          <mxGeometry x="590" y="900" width="120" height="60" as="geometry" />
        </mxCell>
        <mxCell id="QhnTB9sC_WbG7Cv3I6Ns-34" value="" style="edgeStyle=orthogonalEdgeStyle;rounded=0;orthogonalLoop=1;jettySize=auto;html=1;exitX=1;exitY=0.5;exitDx=0;exitDy=0;" edge="1" parent="1" source="QhnTB9sC_WbG7Cv3I6Ns-33" target="QhnTB9sC_WbG7Cv3I6Ns-28">
          <mxGeometry relative="1" as="geometry" />
        </mxCell>
        <mxCell id="QhnTB9sC_WbG7Cv3I6Ns-35" value="Yes" style="edgeLabel;html=1;align=center;verticalAlign=middle;resizable=0;points=[];" vertex="1" connectable="0" parent="QhnTB9sC_WbG7Cv3I6Ns-34">
          <mxGeometry x="-0.3052" relative="1" as="geometry">
            <mxPoint y="22" as="offset" />
          </mxGeometry>
        </mxCell>
        <mxCell id="QhnTB9sC_WbG7Cv3I6Ns-37" style="edgeStyle=orthogonalEdgeStyle;rounded=0;orthogonalLoop=1;jettySize=auto;html=1;exitX=0;exitY=0.5;exitDx=0;exitDy=0;entryX=0.5;entryY=0;entryDx=0;entryDy=0;" edge="1" parent="1" source="QhnTB9sC_WbG7Cv3I6Ns-33" target="QhnTB9sC_WbG7Cv3I6Ns-36">
          <mxGeometry relative="1" as="geometry">
            <mxPoint x="430" y="900" as="targetPoint" />
          </mxGeometry>
        </mxCell>
        <mxCell id="QhnTB9sC_WbG7Cv3I6Ns-38" value="No" style="edgeLabel;html=1;align=center;verticalAlign=middle;resizable=0;points=[];" vertex="1" connectable="0" parent="QhnTB9sC_WbG7Cv3I6Ns-37">
          <mxGeometry x="0.3444" y="2" relative="1" as="geometry">
            <mxPoint as="offset" />
          </mxGeometry>
        </mxCell>
        <mxCell id="QhnTB9sC_WbG7Cv3I6Ns-33" value="Shares Owned ?" style="rhombus;whiteSpace=wrap;html=1;fontFamily=JetBrainsMono Nerd Font;" vertex="1" parent="1">
          <mxGeometry x="450" y="780" width="180" height="80" as="geometry" />
        </mxCell>
        <mxCell id="QhnTB9sC_WbG7Cv3I6Ns-43" style="edgeStyle=orthogonalEdgeStyle;rounded=0;orthogonalLoop=1;jettySize=auto;html=1;exitX=0.5;exitY=1;exitDx=0;exitDy=0;entryX=0;entryY=0.5;entryDx=0;entryDy=0;" edge="1" parent="1" source="QhnTB9sC_WbG7Cv3I6Ns-36" target="QhnTB9sC_WbG7Cv3I6Ns-22">
          <mxGeometry relative="1" as="geometry">
            <Array as="points">
              <mxPoint x="430" y="1010" />
              <mxPoint x="180" y="1010" />
              <mxPoint x="180" y="480" />
            </Array>
          </mxGeometry>
        </mxCell>
        <mxCell id="QhnTB9sC_WbG7Cv3I6Ns-36" value="&lt;font&gt;No Action&lt;/font&gt;" style="rounded=1;whiteSpace=wrap;html=1;fontFamily=JetBrainsMono Nerd Font;" vertex="1" parent="1">
          <mxGeometry x="370" y="910" width="120" height="60" as="geometry" />
        </mxCell>
        <mxCell id="QhnTB9sC_WbG7Cv3I6Ns-44" style="edgeStyle=orthogonalEdgeStyle;rounded=0;orthogonalLoop=1;jettySize=auto;html=1;exitX=1;exitY=0.5;exitDx=0;exitDy=0;entryX=1;entryY=0.5;entryDx=0;entryDy=0;" edge="1" parent="1" source="QhnTB9sC_WbG7Cv3I6Ns-39" target="QhnTB9sC_WbG7Cv3I6Ns-2">
          <mxGeometry relative="1" as="geometry" />
        </mxCell>
        <mxCell id="QhnTB9sC_WbG7Cv3I6Ns-39" value="Remove From Interest" style="whiteSpace=wrap;html=1;fontFamily=JetBrainsMono Nerd Font;rounded=1;" vertex="1" parent="1">
          <mxGeometry x="590" y="1000" width="120" height="60" as="geometry" />
        </mxCell>
      </root>
    </mxGraphModel>
  </diagram>
</mxfile>
